<?xml version="1.0" encoding="UTF-8"?><svg id="Layer_2" xmlns="http://www.w3.org/2000/svg" viewBox="0 0 1402.746 392.3479"><defs><style>.cls-1{fill:#faf4ee;}</style></defs><g id="Layer_1-2"><path id="Path_33" class="cls-1" d="M89.807,196.174L177.373,50.233l87.566,145.9409-87.566,145.9335L89.807,196.174ZM177.373,0L59.6745,196.174l117.6983,196.174,117.7061-196.174L177.373,0Z"/><path id="Path_34" class="cls-1" d="M30.1323,196.174L117.6983,50.233l87.566,145.9409-87.566,145.9335L30.1323,196.174ZM117.6983,0L0,196.174l117.6983,196.174,117.7058-196.174L117.6983,0Z"/><path id="Path_35" class="cls-1" d="M149.4739,196.174L237.0402,50.233l87.566,145.9409-87.566,145.9335-87.5662-145.9335ZM237.0402,0L119.3416,196.174l117.6985,196.174,117.7058-196.174L237.0402,0Z"/><g><path class="cls-1" d="M567.5262,228.7441c-1.7211,19.8063-8.4495,35.2531-20.1852,46.3454-11.7346,11.0923-27.3431,16.6389-46.8244,16.6389-13.613,0-25.6034-3.5067-35.9693-10.5191-10.3679-7.0124-18.3664-16.9773-23.9994-29.8985-5.633-12.9183-8.5667-27.9213-8.802-45.006v-17.3395c0-17.5096,2.8556-32.9366,8.5677-46.2817,5.7101-13.3442,13.9058-23.6295,24.5852-30.8548,10.6793-7.2234,23.0202-10.8375,37.0256-10.8375,18.8545,0,34.0334,5.5466,45.5347,16.6389,11.5003,11.0923,18.1897,26.7958,20.067,47.1106h-29.5729c-1.4087-13.3442-4.9877-22.9697-10.7379-28.8786-5.7511-5.9069-14.1821-8.8613-25.291-8.8613-12.9091,0-22.825,5.1257-29.7496,15.3772-6.9236,10.2524-10.4645,25.2903-10.6207,45.1125v16.4628c0,20.077,3.3046,35.3914,9.9168,45.9414,6.6103,10.55,16.2928,15.824,29.0457,15.824,11.6565,0,20.4195-2.847,26.2878-8.5429,5.8673-5.6929,9.583-15.1722,11.1489-28.4318h29.5729Z"/><path class="cls-1" d="M689.6934,245.9562h-66.1885l-13.8473,43.2218h-30.8645l64.5454-185.6364h26.6392l64.6636,185.6364h-30.9826l-13.9654-43.2218Zm-57.8561-26.0097h49.5247l-24.7628-77.0082-24.7619,77.0082Z"/><path class="cls-1" d="M783.6956,220.3296v68.8484h-29.691V103.5416h65.3674c19.0878,0,34.2472,5.4043,45.4752,16.2101,11.225,10.8077,16.8405,25.1032,16.8405,42.8845,0,18.2112-5.4973,32.3793-16.489,42.5054-10.9927,10.1261-26.3864,15.1881-46.1791,15.1881h-35.324Zm0-26.0097h35.6764c10.5612,0,18.6183-2.6977,24.1751-8.0961,5.5539-5.3964,8.3314-13.1959,8.3314-23.3956,0-10.0285-2.8165-18.041-8.4495-24.0335-5.633-5.9924-13.3777-9.0723-23.236-9.2434h-36.4975v64.7686Z"/><path class="cls-1" d="M938.9571,289.178h-29.5738V103.5416h29.5738v185.6364Z"/><path class="cls-1" d="M1098.9124,129.5513h-53.2794v159.6267h-29.4557V129.5513h-52.8108v-26.0097h135.5459v26.0097Z"/><path class="cls-1" d="M1202.889,245.9562h-66.1885l-13.8473,43.2218h-30.8645l64.5454-185.6364h26.6392l64.6636,185.6364h-30.9826l-13.9654-43.2218Zm-57.8561-26.0097h49.5247l-24.7628-77.0082-24.7619,77.0082Z"/><path class="cls-1" d="M1402.746,289.178h-29.691l-76.1639-131.7054v131.7054h-29.691V103.5416h29.691l76.3982,132.2149V103.5416h29.4567v185.6364Z"/></g></g></svg>