<svg xmlns="http://www.w3.org/2000/svg" viewBox="0 0 60.6377 28.3501"><defs><style>.cls-1{fill:#faf4ee;}</style></defs><g id="Layer_2" data-name="Layer 2"><g id="Layer_1-2" data-name="Layer 1"><path class="cls-1" d="M5.8008,30.11A8.1194,8.1194,0,0,1,.67,28.2529l.9483-1.2822a6.78,6.78,0,0,0,4.1367,1.5479,3.8373,3.8373,0,0,0,2.53-.8511,2.6159,2.6159,0,0,0,1.0293-2.0894A2.287,2.287,0,0,0,8.99,24.3623a3.2359,3.2359,0,0,0-.9472-.9614A15.7173,15.7173,0,0,0,5.7314,22.229,14.6776,14.6776,0,0,1,3.3281,20.98a5.062,5.062,0,0,1-1.0976-1.0059,3.5066,3.5066,0,0,1-.5664-1.0722,4.1028,4.1028,0,0,1-.1846-1.26A4.3012,4.3012,0,0,1,1.7217,16.26a3.6272,3.6272,0,0,1,.832-1.3379,4.805,4.805,0,0,1,1.5713-1.05,5.7472,5.7472,0,0,1,2.3232-.4312,7.6812,7.6812,0,0,1,2.1612.3208,6.6508,6.6508,0,0,1,1.93.895l-.8086,1.26a7.7,7.7,0,0,0-1.5489-.6856,5.5279,5.5279,0,0,0-1.6875-.2651,4.4774,4.4774,0,0,0-1.4091.2544,2.8532,2.8532,0,0,0-1.3067.9062,2.1855,2.1855,0,0,0-.5429,1.4258,2.3927,2.3927,0,0,0,.22.9951,2.9213,2.9213,0,0,0,.8086.9834A11.2091,11.2091,0,0,0,6.668,20.8252a17.1574,17.1574,0,0,1,2.4726,1.249,5.9952,5.9952,0,0,1,1.04.8731,4.0856,4.0856,0,0,1,.67,1.05,3.6611,3.6611,0,0,1,.289,1.5366,4.1626,4.1626,0,0,1-1.4785,3.2939A5.6857,5.6857,0,0,1,5.8008,30.11Z" transform="translate(-0.2158 -1.7603)"/><path class="cls-1" d="M24.1748,13.751h1.7793V29.8228H24.1748V22.2842H16.2236v7.5386H14.4443V13.751h1.7793v6.9858h7.9512Z" transform="translate(-0.2158 -1.7603)"/><path class="cls-1" d="M38.3652,30.11a8.98,8.98,0,0,1-6.1709-2.4542,8.2451,8.2451,0,0,1-1.872-2.686,7.9663,7.9663,0,0,1-.67-3.2163,7.84,7.84,0,0,1,.67-3.1836,8.2766,8.2766,0,0,1,1.872-2.6748,8.9828,8.9828,0,0,1,12.3418,0A8.2769,8.2769,0,0,1,46.4082,18.57a7.8248,7.8248,0,0,1,.6709,3.1836,7.95,7.95,0,0,1-.6709,3.2163,8.2453,8.2453,0,0,1-1.8721,2.686A8.9754,8.9754,0,0,1,38.3652,30.11Zm0-1.5918a6.8879,6.8879,0,0,0,2.6817-.5308,6.9875,6.9875,0,0,0,2.2187-1.459,6.6858,6.6858,0,0,0,1.4785-2.1777,6.5647,6.5647,0,0,0,.5323-2.5972,6.4913,6.4913,0,0,0-.5323-2.5869,6.7216,6.7216,0,0,0-1.4785-2.1665,7.0027,7.0027,0,0,0-2.2187-1.459,7.043,7.043,0,0,0-5.3623,0,7.1229,7.1229,0,0,0-2.2305,1.459,6.6041,6.6041,0,0,0-1.49,2.1665,6.5509,6.5509,0,0,0,0,5.1733,6.7217,6.7217,0,0,0,1.49,2.1773,7.0047,7.0047,0,0,0,2.2305,1.47A6.8861,6.8861,0,0,0,38.3652,28.5186Z" transform="translate(-0.2158 -1.7603)"/><path class="cls-1" d="M55.792,13.751a6.2309,6.2309,0,0,1,1.1318.1216,4.7632,4.7632,0,0,1,1.295.4531,5.2333,5.2333,0,0,1,1.248.9175,4.7074,4.7074,0,0,1,.9932,1.4589,4.4551,4.4551,0,0,1,.3935,1.8462,5.3084,5.3084,0,0,1-.1279,1.0718,4.2846,4.2846,0,0,1-.4736,1.2271,4.9827,4.9827,0,0,1-.959,1.1938,4.929,4.929,0,0,1-1.5371.9507,5.1543,5.1543,0,0,1-1.9639.376H52.1631v6.4551H50.36V13.751H55.792Zm-.0928,8.0913A3.6234,3.6234,0,0,0,57.4443,21.4a2.9216,2.9216,0,0,0,1.2364-1.2378,3.45,3.45,0,0,0,.416-1.6138,3.1561,3.1561,0,0,0-.9473-2.3325,3.3336,3.3336,0,0,0-2.45-.9394H52.1631v6.5659Z" transform="translate(-0.2158 -1.7603)"/><path class="cls-1" d="M7.1055,1.76v.9023H4.18v8.4727H3.1416V2.6626H.2158V1.76Z" transform="translate(-0.2158 -1.7603)"/><path class="cls-1" d="M14.4521,1.76H15.49v9.375H14.4521V6.7378H9.8145v4.3975H8.7764V1.76H9.8145V5.835h4.6376Z" transform="translate(-0.2158 -1.7603)"/><path class="cls-1" d="M23.957,2.65H19.373V5.835h3.9913v.9028H19.373v3.4946h4.584v.9029H18.335V1.76h5.622Z" transform="translate(-0.2158 -1.7603)"/></g></g></svg>