<svg xmlns="http://www.w3.org/2000/svg" viewBox="0 0 385.6857 111.2295"><defs><style>.cls-1{fill:#faf4ee;}</style></defs><g id="Layer_2" data-name="Layer 2"><g id="Layer_1-2" data-name="Layer 1"><path class="cls-1" d="M147.2047,54.2036a13.9221,13.9221,0,0,1,2.877.355,11.1156,11.1156,0,0,1,3.2876,1.3242,13.4776,13.4776,0,0,1,3.17,2.68,14.0066,14.0066,0,0,1,2.5249,4.2622,14.6786,14.6786,0,0,1,.998,5.3926,17.81,17.81,0,0,1-.3232,3.1323,13.82,13.82,0,0,1-1.2036,3.5845,14.4927,14.4927,0,0,1-2.4365,3.4873,12.3926,12.3926,0,0,1-3.9043,2.7768,11.6269,11.6269,0,0,1-4.99,1.0982H137.987v18.8579h-4.5791V54.2036h13.7968ZM146.97,77.8408a8.2711,8.2711,0,0,0,4.4326-1.292,8.0764,8.0764,0,0,0,3.1411-3.6162A11.2934,11.2934,0,0,0,155.6,68.2178a9.9649,9.9649,0,0,0-2.4072-6.8135A7.8966,7.8966,0,0,0,146.97,58.66H137.987V77.8408Z"/><path class="cls-1" d="M187.1276,80.6177a5.74,5.74,0,0,1,1.1738,1.0332,14.178,14.178,0,0,1,1.5269,2.1958q.88,1.4868,3.1113,6.4585a80.25,80.25,0,0,0,3.5815,7.2651q1.35,2.2932,2.29,3.5845h-5.46a34.5251,34.5251,0,0,1-1.9082-3.229q-1.0275-1.938-2.8769-6.1031t-2.73-5.748A19.4019,19.4019,0,0,0,184.133,83.46a8.1111,8.1111,0,0,0-1.9082-1.7442,4.3592,4.3592,0,0,0-2.4366-.71h-4.8725v20.1494h-4.4033V54.2036H185.19a10.5011,10.5011,0,0,1,4.4326.9043,12.5843,12.5843,0,0,1,6.4287,6.4258,13.3294,13.3294,0,0,1,1.2915,5.9736,15.2965,15.2965,0,0,1-.5283,3.8428,13.4539,13.4539,0,0,1-1.7612,3.9394,12.9077,12.9077,0,0,1-3.2583,3.3907A10.86,10.86,0,0,1,187.1276,80.6177Zm-12.2119-4.0689h9.687a7.9184,7.9184,0,0,0,6.0473-2.583,9.0224,9.0224,0,0,0,2.4073-6.3935,10.75,10.75,0,0,0-.7925-3.9073,7.7294,7.7294,0,0,0-2.9356-3.52,8.1225,8.1225,0,0,0-4.7265-1.4853h-9.687Z"/><path class="cls-1" d="M227.3444,101.9941a19.9713,19.9713,0,0,1-8.5425-1.9048,22.2758,22.2758,0,0,1-7.1333-5.2636,24.371,24.371,0,0,1-4.7559-7.8467,26.2551,26.2551,0,0,1-1.7026-9.3965,25.8253,25.8253,0,0,1,1.7026-9.3,24.4721,24.4721,0,0,1,4.7559-7.8144,22.31,22.31,0,0,1,7.1333-5.2632,20.103,20.103,0,0,1,17.085,0,22.3376,22.3376,0,0,1,7.1333,5.2632,24.4956,24.4956,0,0,1,4.7553,7.8144,25.8447,25.8447,0,0,1,1.7027,9.3,26.2748,26.2748,0,0,1-1.7027,9.3965,24.3943,24.3943,0,0,1-4.7553,7.8467,22.3031,22.3031,0,0,1-7.1333,5.2636A19.98,19.98,0,0,1,227.3444,101.9941Zm0-4.65a15.5508,15.5508,0,0,0,6.81-1.55,17.7419,17.7419,0,0,0,5.6363-4.2622,19.8756,19.8756,0,0,0,3.7573-6.3613,21.6959,21.6959,0,0,0,1.3506-7.5884,21.4371,21.4371,0,0,0-1.3506-7.5561,19.9475,19.9475,0,0,0-3.7573-6.3291,17.7361,17.7361,0,0,0-5.6363-4.2627,15.7393,15.7393,0,0,0-13.6211,0,18.0423,18.0423,0,0,0-5.6655,4.2627,19.638,19.638,0,0,0-3.7871,6.3291,21.8185,21.8185,0,0,0,0,15.1118A20.009,20.009,0,0,0,214.8683,91.5a17.8165,17.8165,0,0,0,5.6655,4.2949A15.5437,15.5437,0,0,0,227.3444,97.3442Z"/><path class="cls-1" d="M258.5778,111.23l-2.877-3.9395a22.161,22.161,0,0,0,5.0786-6.49,17.8633,17.8633,0,0,0,1.3794-7.46V54.2036h4.462v38.749a32.8479,32.8479,0,0,1-.6163,6.8135,17.6962,17.6962,0,0,1-2.26,5.5542A29.1166,29.1166,0,0,1,258.5778,111.23Z"/><path class="cls-1" d="M305.1354,58.66H285.1735V74.6113h17.3784v4.521H285.1735V96.6338h19.9619v4.521H280.653V54.2036h24.4824Z"/><path class="cls-1" d="M334.6085,101.9941a19.93,19.93,0,0,1-8.4545-1.8725,21.6627,21.6627,0,0,1-7.0748-5.2315,24.233,24.233,0,0,1-4.6967-7.8466,26.6818,26.6818,0,0,1-1.6734-9.3965,26.2636,26.2636,0,0,1,1.7027-9.397,24.9735,24.9735,0,0,1,4.6967-7.8467,21.37,21.37,0,0,1,7.0455-5.2309,20.051,20.051,0,0,1,8.5131-1.8731q8.2192,0,15.3238,6.2L347.29,63.1157a22.6187,22.6187,0,0,0-6.1353-3.8423,16.7419,16.7419,0,0,0-6.4878-1.3886,15.6987,15.6987,0,0,0-6.7519,1.5175,16.8147,16.8147,0,0,0-5.6065,4.2627,20.6334,20.6334,0,0,0-3.7285,6.3614,21.5953,21.5953,0,0,0-1.35,7.6206A21.85,21.85,0,0,0,318.58,85.3a19.443,19.443,0,0,0,3.7578,6.3291,17.6051,17.6051,0,0,0,5.607,4.1978,15.6192,15.6192,0,0,0,6.7807,1.5175,17.2651,17.2651,0,0,0,6.5464-1.3237,20.7762,20.7762,0,0,0,6.0181-3.7778l2.7007,3.5517A22.3923,22.3923,0,0,1,334.6085,101.9941Z"/><path class="cls-1" d="M385.6857,54.2036v4.52H372.945v42.4307h-4.52V58.7241h-12.74v-4.52Z"/><path class="cls-1" d="M145.4669,19.1763v2.6372h-7.4321V46.5644h-2.6367V21.8135H127.966V19.1763Z"/><path class="cls-1" d="M165.0905,19.1763h2.6372V46.5644h-2.6372V33.7178H153.3092V46.5644H150.672V19.1763h2.6372V31.081h11.7813Z"/><path class="cls-1" d="M190.1945,21.7759H178.55V31.081h10.1376v2.6368H178.55V43.9272h11.6445v2.6372H175.9127V19.1763h14.2818Z"/><path class="cls-1" d="M64.6539,92.6038c-6.7532.3728-11.4861-.4848-16.1048-2.335-6.0942-2.4413-12.2025-4.8656-18.3983-7.0315-4.3049-1.505-8.76-2.59-13.1617-3.8127a13.3521,13.3521,0,0,1-9.5143-9.3525C4.7714,61.1567,2.32,52.1371.3691,43.0318-1.3383,35.0645,3.1069,29.476,8.9718,24.7079c5-4.0645,9.8058-8.3642,14.7717-12.4709A165.25,165.25,0,0,1,36.8266,1.8937C40.5134-.5731,44.7505-.6006,48.8417,1.64,50.62,2.6142,52.58,3.2535,54.41,4.1424c6.0853,2.9568,12.4047,5.542,18.1545,9.05A147.2848,147.2848,0,0,1,92.0314,27.0352a69.3961,69.3961,0,0,1,11.6453,13.7157,115.2541,115.2541,0,0,1,8.2848,15.4738c1.7221,3.6235-.1487,8.6017-2.9841,10.6915-6.0833,4.4835-12.38,8.692-18.72,12.8129-5.3491,3.4766-10.7353,6.9543-16.3915,9.882C70.54,91.3322,66.6562,91.9805,64.6539,92.6038ZM93.1673,57.9181c-.816-2.3381-1.4725-4.7468-2.4778-7.001C87.66,44.1235,82.0558,39.3184,76.9477,34.25A48.3173,48.3173,0,0,0,60.3242,23.0878c-4.913-1.9022-9.8614-2.9855-14.88-2.3714-8.8239,1.08-16.6863,5.1469-23.8966,10.0639-3.66,2.4961-7.21,5.8842-8.0621,10.6565a32.657,32.657,0,0,0-.0456,8.47c.6826,7.8029,5.1183,13.5087,11.363,17.5869,3.8517,2.5155,8.4316,3.948,12.7358,5.7449,3.1186,1.302,6.2339,2.8773,9.5086,3.4755a51.1762,51.1762,0,0,0,12.5371.7561,45.8626,45.8626,0,0,0,12.7993-2.45,76.3114,76.3114,0,0,0,14.4028-7.3329C90.1,65.5618,93.2039,62.6885,93.1673,57.9181Z"/><path class="cls-1" d="M66.6115,52.2169c.3026,2.7484-2.5083,6.4107-5.1546,6.7161-2.7694.3195-6.2945-2.2721-6.567-4.8278a5.8669,5.8669,0,0,1,4.9533-6.5087C63.01,47.2117,66.3084,49.4634,66.6115,52.2169Z"/><path class="cls-1" d="M39.9226,49.9178c.2823,3.0215-1.998,6.3491-4.4885,6.55-2.7282.22-6.9476-2.6071-7.1342-4.78-.2515-2.9285,2.57-6.3066,5.3886-6.4509C36.6411,45.0854,39.6846,47.3708,39.9226,49.9178Z"/></g></g></svg>