<svg xmlns="http://www.w3.org/2000/svg" viewBox="0 0 388.6203 99.3593"><defs><style>.cls-1{fill:#faf4ee;}</style></defs><g id="Layer_2" data-name="Layer 2"><g id="Layer_1-2" data-name="Layer 1"><path class="cls-1" d="M64.6539,92.6038c-6.7532.3728-11.4861-.4848-16.1048-2.335-6.0942-2.4413-12.2025-4.8656-18.3983-7.0315-4.3049-1.505-8.76-2.59-13.1617-3.8127a13.3521,13.3521,0,0,1-9.5143-9.3525C4.7714,61.1567,2.32,52.1371.3691,43.0318-1.3383,35.0645,3.1069,29.476,8.9718,24.7079c5-4.0645,9.8058-8.3642,14.7717-12.4709A165.25,165.25,0,0,1,36.8266,1.8937C40.5134-.5731,44.7505-.6006,48.8417,1.64,50.62,2.6142,52.58,3.2535,54.41,4.1424c6.0853,2.9568,12.4047,5.542,18.1545,9.05A147.2848,147.2848,0,0,1,92.0314,27.0352a69.3961,69.3961,0,0,1,11.6453,13.7157,115.2541,115.2541,0,0,1,8.2848,15.4738c1.7221,3.6235-.1487,8.6017-2.9841,10.6915-6.0833,4.4835-12.38,8.692-18.72,12.8129-5.3491,3.4766-10.7353,6.9543-16.3915,9.882C70.54,91.3322,66.6562,91.9805,64.6539,92.6038ZM93.1673,57.9181c-.816-2.3381-1.4725-4.7468-2.4778-7.001C87.66,44.1235,82.0558,39.3184,76.9477,34.25A48.3173,48.3173,0,0,0,60.3242,23.0878c-4.913-1.9022-9.8614-2.9855-14.88-2.3714-8.8239,1.08-16.6863,5.1469-23.8966,10.0639-3.66,2.4961-7.21,5.8842-8.0621,10.6565a32.657,32.657,0,0,0-.0456,8.47c.6826,7.8029,5.1183,13.5087,11.363,17.5869,3.8517,2.5155,8.4316,3.948,12.7358,5.7449,3.1186,1.302,6.2339,2.8773,9.5086,3.4755a51.1762,51.1762,0,0,0,12.5371.7561,45.8626,45.8626,0,0,0,12.7993-2.45,76.3114,76.3114,0,0,0,14.4028-7.3329C90.1,65.5618,93.2039,62.6885,93.1673,57.9181Z"/><path class="cls-1" d="M66.6115,52.2169c.3026,2.7484-2.5083,6.4107-5.1546,6.7161-2.7694.3195-6.2945-2.2721-6.567-4.8278a5.8669,5.8669,0,0,1,4.9533-6.5087C63.01,47.2117,66.3084,49.4634,66.6115,52.2169Z"/><path class="cls-1" d="M39.9226,49.9178c.2823,3.0215-1.998,6.3491-4.4885,6.55-2.7282.22-6.9476-2.6071-7.1342-4.78-.2515-2.9285,2.57-6.3066,5.3886-6.4509C36.6411,45.0854,39.6846,47.3708,39.9226,49.9178Z"/><path class="cls-1" d="M132.1537,52.4824h15.9588q6.5737,0,10.19,3.4842,3.6164,3.4863,3.6155,9.8618,0,6.4449-3.6447,9.9607-3.648,3.5179-10.161,3.5175H135.86V98.8332h-3.7064Zm15.7205,23.34q10.3384,0,10.3393-9.994,0-9.8617-10.3393-9.8618H135.86V75.8224Z"/><path class="cls-1" d="M204.6535,98.8332h-4.0663L193.476,83.9745a9.1323,9.1323,0,0,0-3.3465-4.1417,10.4518,10.4518,0,0,0-5.26-1.118h-8.7876V98.8332h-3.7048V52.4824h16.8538q6.6345,0,10.2209,3.3205,3.59,3.32,3.5864,9.6972A11.6724,11.6724,0,0,1,192.1011,78.123a6.8588,6.8588,0,0,1,2.779,1.8087,13.1333,13.1333,0,0,1,2.2406,3.3853ZM188.9946,75.2306q10.3992,0,10.3993-9.7961,0-4.7983-2.5715-7.1339-2.5681-2.3324-7.8278-2.334H176.0239v19.264Z"/><path class="cls-1" d="M222.1056,96.4993a18.1133,18.1133,0,0,1-6.5146-8.2186,32.0834,32.0834,0,0,1-2.2715-12.59,32.2768,32.2768,0,0,1,2.2715-12.6561,18.1978,18.1978,0,0,1,6.4854-8.2186,19.0047,19.0047,0,0,1,20.0527,0,18.1528,18.1528,0,0,1,6.5145,8.1853,32.0318,32.0318,0,0,1,2.2715,12.623,32.2722,32.2722,0,0,1-2.2715,12.6561,18.1236,18.1236,0,0,1-6.5145,8.2186,18.9535,18.9535,0,0,1-20.0235,0Zm21.0385-6.016q3.9447-5.2592,3.9447-14.8587,0-9.5979-3.9139-14.8256-3.9156-5.2263-11.0868-5.2263a12.9477,12.9477,0,0,0-11.0283,5.26q-3.9156,5.26-3.9139,14.7923,0,9.5346,3.9139,14.8263a14.1934,14.1934,0,0,0,22.0843.0324Z"/><path class="cls-1" d="M254.5,95.8086l3.2881-.2626a6.5066,6.5066,0,0,0,4.96-2.5974,10.1731,10.1731,0,0,0,1.7348-6.213V52.4824h3.7047V86.8677q0,5.522-2.57,8.645a9.9808,9.9808,0,0,1-7.4111,3.4518L254.8,99.228Z"/><path class="cls-1" d="M281.1563,52.4824h25.9982v3.4842H284.8011V73.5209H305.96v3.5507H284.8011V95.349h22.3534v3.4842H281.1563Z"/><path class="cls-1" d="M324.9081,96.4993a18.3231,18.3231,0,0,1-6.6345-8.2186,31.56,31.56,0,0,1-2.3315-12.6561,31.5619,31.5619,0,0,1,2.3315-12.6554,17.3226,17.3226,0,0,1,16.7955-11.0129,20.7258,20.7258,0,0,1,8.0094,1.5119,17.2536,17.2536,0,0,1,6.3346,4.5365L347.86,61.2263a19.7041,19.7041,0,0,0-6.007-4.3387,16.6689,16.6689,0,0,0-6.7237-1.3149q-7.2936,0-11.3267,5.26-4.0347,5.26-4.0339,14.7923,0,9.6,4.0031,14.8587,4.0054,5.2605,11.3575,5.26a16.6554,16.6554,0,0,0,6.7237-1.3149,19.677,19.677,0,0,0,6.007-4.3387l1.5533,3.2216a17.2239,17.2239,0,0,1-6.3346,4.5357,20.7113,20.7113,0,0,1-8.0094,1.5127A17.9258,17.9258,0,0,1,324.9081,96.4993Z"/><path class="cls-1" d="M369.9133,56.0323H354.791v-3.55H388.62v3.55H373.56V98.8332h-3.6464Z"/><path class="cls-1" d="M135.0705,20.7923h-7.9381V18.9285h17.7583v1.8638h-7.906V43.2586h-1.9142Z"/><path class="cls-1" d="M167.1644,18.9285v24.33h-1.9127V31.8358H151.1335V43.2586h-1.9141v-24.33h1.9141V29.972h14.1182V18.9285Z"/><path class="cls-1" d="M173.9733,18.9285H187.62V20.758H175.886v9.214h11.1069v1.8638H175.886V41.43H187.62v1.8288h-13.647Z"/></g></g></svg>