<?xml version="1.0" standalone="no"?>
<!DOCTYPE svg PUBLIC "-//W3C//DTD SVG 20010904//EN"
 "http://www.w3.org/TR/2001/REC-SVG-20010904/DTD/svg10.dtd">
<svg version="1.0" xmlns="http://www.w3.org/2000/svg"
 width="1216.000000pt" height="1216.000000pt" viewBox="0 0 1216.000000 1216.000000"
 preserveAspectRatio="xMidYMid meet">
<metadata>
Created by potrace 1.14, written by Peter Selinger 2001-2017
</metadata>
<g transform="translate(0.000000,1216.000000) scale(0.100000,-0.100000)"
fill="#000000" stroke="none">
<path d="M4508 11075 c-2 -2 -19 -5 -38 -8 -192 -27 -417 -125 -575 -249 -66
-52 -270 -198 -276 -198 -5 0 -9 -3 -9 -7 0 -5 -16 -19 -35 -32 -19 -13 -45
-32 -57 -42 -67 -55 -206 -162 -253 -194 -24 -16 -44 -36 -44 -44 -1 -8 -4
-12 -7 -8 -3 3 -34 -17 -68 -44 -33 -28 -73 -61 -88 -72 -16 -12 -40 -33 -55
-47 -16 -14 -46 -39 -68 -55 -22 -17 -52 -41 -66 -55 -15 -14 -44 -39 -65 -57
-22 -17 -53 -44 -71 -60 -18 -15 -47 -39 -64 -53 -18 -14 -47 -40 -66 -57 -18
-18 -35 -33 -38 -33 -2 0 -17 -12 -32 -26 -15 -14 -46 -40 -67 -58 -51 -41
-103 -86 -133 -113 -12 -12 -23 -20 -23 -17 0 2 -16 -10 -37 -28 -20 -18 -46
-42 -59 -53 -12 -11 -37 -32 -56 -47 -19 -15 -48 -40 -65 -55 -17 -15 -52 -46
-78 -68 -26 -22 -62 -53 -80 -70 -19 -16 -45 -38 -59 -49 -14 -10 -39 -32 -56
-47 -16 -16 -35 -29 -40 -29 -6 0 -8 -4 -5 -10 3 -5 2 -10 -2 -10 -10 0 -60
-39 -103 -80 -14 -14 -42 -37 -60 -51 -19 -15 -50 -41 -69 -58 -19 -17 -39
-31 -43 -31 -5 0 -6 -4 -3 -10 3 -5 1 -10 -4 -10 -10 0 -36 -19 -67 -48 -8 -8
-47 -41 -87 -74 -39 -33 -73 -64 -75 -69 -2 -5 -8 -9 -13 -9 -5 0 -23 -13 -39
-30 -16 -16 -32 -30 -36 -30 -3 0 -16 -9 -28 -19 -63 -58 -84 -76 -116 -100
-19 -14 -44 -34 -55 -44 -11 -10 -33 -28 -48 -40 -15 -12 -41 -33 -56 -47 -15
-14 -58 -52 -96 -85 -113 -99 -256 -246 -340 -349 -22 -26 -50 -60 -62 -74
-13 -14 -23 -28 -23 -32 0 -6 -10 -20 -49 -66 -5 -7 -7 -15 -4 -18 4 -3 1 -6
-4 -6 -12 0 -131 -205 -140 -240 -3 -11 -9 -20 -14 -20 -5 0 -8 -3 -7 -7 0 -5
-2 -17 -7 -28 -4 -11 -18 -48 -31 -81 -27 -71 -70 -240 -81 -323 -20 -152 -3
-484 31 -581 3 -8 7 -28 10 -45 2 -16 16 -82 30 -145 14 -63 27 -124 29 -135
2 -11 7 -27 10 -35 5 -15 32 -128 43 -185 11 -52 12 -60 14 -60 2 0 9 -36 13
-65 2 -14 6 -30 9 -35 8 -14 32 -119 30 -128 -1 -4 2 -16 7 -25 5 -9 11 -30
14 -47 3 -16 22 -93 42 -170 20 -77 38 -147 40 -155 9 -41 57 -229 65 -255 14
-42 91 -326 96 -350 2 -11 13 -49 23 -85 11 -36 25 -85 32 -110 7 -25 14 -49
15 -55 2 -5 5 -19 8 -30 2 -11 9 -32 15 -47 6 -16 8 -28 5 -28 -4 0 -1 -7 6
-15 7 -8 10 -15 7 -15 -3 0 1 -16 9 -35 8 -19 14 -38 13 -42 -1 -5 0 -11 1
-15 1 -5 3 -11 4 -15 5 -21 38 -130 43 -143 3 -8 8 -25 10 -37 2 -11 12 -47
23 -79 11 -31 20 -65 20 -76 0 -10 4 -18 10 -18 5 0 7 -6 4 -14 -3 -8 0 -17 5
-21 6 -3 9 -11 5 -16 -3 -5 -1 -15 4 -22 8 -11 20 -47 28 -87 2 -8 12 -44 24
-79 11 -35 20 -70 20 -77 0 -8 3 -14 8 -14 4 0 13 -19 20 -42 55 -178 256
-450 437 -595 58 -46 171 -123 180 -123 4 0 20 -9 36 -21 16 -11 29 -17 29
-13 0 4 8 0 18 -8 24 -21 212 -93 272 -104 14 -3 39 -9 55 -14 17 -6 35 -10
40 -11 6 -1 30 -8 55 -15 46 -13 180 -50 250 -68 8 -3 40 -11 70 -20 153 -42
287 -78 305 -83 28 -6 38 -9 55 -16 8 -4 40 -13 70 -21 48 -13 97 -27 218 -65
17 -5 32 -7 32 -3 0 4 4 1 8 -5 5 -7 20 -14 35 -15 15 -1 27 -6 27 -10 0 -4 9
-8 20 -8 10 0 29 -4 42 -9 30 -12 61 -24 71 -26 4 -2 8 -3 10 -5 1 -1 10 -3
19 -5 18 -3 98 -31 133 -46 11 -4 43 -15 70 -24 28 -9 64 -22 80 -29 30 -13
90 -35 110 -40 6 -2 17 -6 25 -9 118 -48 302 -112 313 -109 4 1 7 -2 7 -6 0
-9 78 -37 93 -34 4 1 7 -2 7 -8 0 -5 10 -10 23 -10 12 0 31 -7 41 -15 10 -8
22 -12 27 -10 4 3 10 1 14 -5 3 -5 12 -10 19 -10 8 0 29 -6 47 -14 19 -8 39
-15 44 -16 6 -1 19 -7 30 -13 11 -6 23 -12 28 -13 4 -1 9 -3 12 -4 3 -1 8 -3
13 -5 4 -1 20 -7 35 -13 16 -7 33 -12 38 -12 5 0 9 -4 9 -8 0 -5 6 -9 13 -9
11 0 147 -49 212 -78 17 -7 147 -59 290 -115 143 -57 266 -107 273 -113 6 -5
12 -7 12 -3 0 3 24 -5 53 -17 28 -13 56 -24 60 -24 4 -1 20 -5 35 -11 15 -6
36 -13 47 -18 21 -7 37 -12 58 -17 6 -1 17 -5 22 -8 6 -4 35 -12 65 -19 30 -7
61 -17 68 -23 6 -5 12 -7 12 -4 0 3 26 -2 58 -10 31 -8 64 -16 72 -18 8 -2 38
-9 65 -15 28 -6 63 -13 80 -15 16 -2 50 -9 75 -14 46 -10 83 -16 180 -27 30
-3 84 -10 120 -14 36 -4 196 -8 357 -8 226 0 307 3 355 15 35 8 74 17 87 19
14 3 58 14 100 26 41 11 80 21 86 22 5 1 15 4 20 8 10 6 67 19 82 20 5 0 13 4
20 10 7 5 17 7 23 3 5 -3 10 -1 10 4 0 6 3 10 8 9 13 -3 97 23 120 38 12 8 22
12 22 9 0 -3 16 1 35 9 19 8 35 12 35 9 0 -3 6 0 13 6 8 6 17 8 20 4 4 -3 7
-1 7 6 0 7 4 10 9 6 5 -3 12 -1 16 5 4 6 10 8 15 5 5 -3 11 -1 15 5 4 6 11 8
16 5 5 -4 9 -1 9 4 0 6 8 11 18 11 10 0 22 4 27 8 6 5 39 19 75 32 36 13 67
26 70 29 3 3 28 17 55 31 28 13 91 47 140 74 50 28 90 48 90 46 0 -3 14 5 30
16 17 12 50 32 75 46 155 86 213 120 239 140 13 10 27 15 32 12 5 -3 9 -1 9 4
0 4 16 16 35 25 19 9 35 22 35 29 0 6 3 8 6 5 4 -4 19 2 33 12 14 10 33 21 41
24 8 4 45 26 83 50 37 23 106 66 155 96 48 30 90 58 93 64 3 5 8 7 10 6 4 -3
69 38 370 234 83 53 152 97 155 97 6 0 64 40 82 58 7 6 20 12 28 12 8 0 14 5
14 10 0 6 8 14 18 17 14 6 78 47 192 123 8 5 38 24 65 42 28 18 52 36 53 40 2
5 8 8 13 8 6 0 39 20 75 45 35 25 68 45 74 45 5 0 10 5 10 10 0 6 6 10 13 10
8 0 22 9 32 20 10 11 22 20 28 20 5 0 26 14 47 30 21 17 41 30 44 30 4 0 12 5
19 10 26 22 190 130 197 130 5 0 10 4 12 8 2 5 37 31 78 58 41 27 80 52 85 56
16 13 157 111 205 143 25 16 47 32 50 35 3 3 32 23 65 45 33 22 62 42 65 45 3
3 34 26 70 51 148 103 175 123 178 131 2 4 10 8 17 8 7 0 15 3 17 8 3 8 146
112 154 112 2 0 15 9 27 21 12 11 41 33 64 48 23 16 40 31 36 35 -3 3 -1 6 7
6 13 0 107 93 150 149 133 172 210 404 210 630 0 124 -36 309 -73 376 -6 11
-11 22 -12 25 0 3 -12 30 -26 60 -55 116 -73 155 -73 162 -1 4 -7 13 -13 19
-7 7 -13 18 -13 25 0 15 -210 433 -221 440 -5 3 -9 11 -9 18 0 7 -22 52 -50
100 -27 48 -50 91 -50 95 0 5 -7 14 -15 21 -9 7 -13 15 -11 18 3 3 -3 17 -14
32 -11 15 -24 38 -30 51 -13 32 -33 62 -45 71 -7 5 -7 8 0 8 7 0 7 3 0 8 -12
8 -54 80 -62 105 -3 9 -9 17 -14 17 -5 0 -9 5 -9 11 0 6 -14 31 -30 56 -17 24
-30 46 -30 49 0 2 -11 21 -24 42 -12 20 -23 41 -24 46 0 5 -4 12 -9 15 -10 8
-63 85 -63 93 0 3 -19 34 -42 68 -24 34 -48 70 -54 81 -6 10 -18 27 -27 37
-10 10 -17 22 -17 25 0 4 -24 40 -53 80 -30 39 -59 82 -65 94 -7 12 -18 27
-25 35 -7 7 -36 45 -65 83 -61 82 -50 69 -132 170 -35 44 -71 88 -79 97 -9 9
-20 23 -26 30 -5 8 -39 47 -75 88 -36 41 -76 88 -90 104 -126 146 -469 487
-583 579 -25 21 -52 43 -59 50 -11 10 -98 80 -181 147 -11 8 -24 20 -31 25 -6
6 -29 24 -51 40 -22 17 -42 32 -45 36 -5 6 -82 66 -140 109 -35 27 -98 75
-115 88 -60 47 -136 102 -141 102 -3 0 -11 6 -18 13 -7 6 -25 21 -41 32 -15
11 -40 30 -55 43 -15 12 -32 22 -38 22 -6 0 -12 4 -14 8 -3 8 -139 106 -278
200 -35 24 -67 48 -71 54 -3 5 -8 9 -10 7 -3 -2 -264 166 -294 189 -5 4 -39
26 -74 47 -35 22 -75 48 -90 58 -14 9 -34 20 -43 23 -10 4 -18 10 -18 15 0 5
-7 9 -15 9 -8 0 -15 4 -15 8 0 5 -16 14 -35 22 -19 8 -35 17 -35 22 0 4 -7 8
-15 8 -8 0 -15 5 -15 10 0 6 -4 10 -8 10 -9 0 -217 123 -239 141 -7 6 -13 9
-13 5 0 -3 -28 12 -62 34 -33 22 -67 40 -75 40 -7 0 -13 3 -13 8 0 4 -10 12
-23 18 -64 30 -192 100 -195 107 -2 4 -8 7 -14 7 -16 0 -122 53 -130 65 -4 6
-8 6 -8 1 0 -5 -8 -2 -18 7 -10 10 -22 14 -25 10 -4 -3 -7 -1 -7 5 0 7 -3 11
-7 10 -5 -1 -60 23 -123 54 -194 95 -386 185 -424 199 -20 7 -36 17 -36 21 0
4 -9 8 -20 8 -11 0 -20 5 -20 10 0 6 -11 10 -25 10 -14 0 -25 4 -25 10 0 5
-12 13 -27 16 -16 4 -36 14 -45 22 -10 8 -18 12 -18 9 0 -4 -21 4 -47 17 -27
14 -86 43 -133 64 -47 22 -148 70 -225 107 -77 36 -210 96 -295 132 -245 103
-419 186 -431 205 -3 5 -8 9 -10 8 -6 -2 -43 13 -49 19 -7 9 -113 51 -128 51
-6 0 -12 5 -12 11 0 5 -4 8 -9 5 -5 -3 -28 1 -52 9 -84 27 -200 43 -328 43
-72 0 -131 -1 -133 -3z m970 -2230 c37 -4 84 -9 105 -11 21 -1 50 -5 65 -8 48
-9 116 -19 145 -20 15 -1 27 -3 27 -6 0 -3 8 -6 18 -7 16 -2 78 -15 132 -27
14 -4 34 -8 45 -11 11 -2 45 -11 75 -20 30 -9 63 -18 72 -20 9 -2 26 -9 37
-15 12 -6 21 -8 21 -6 0 3 30 -6 68 -20 76 -28 89 -33 100 -35 8 -2 89 -36
272 -114 77 -33 373 -177 380 -186 3 -3 20 -12 38 -20 17 -8 32 -17 32 -20 0
-7 40 -22 53 -20 4 1 7 -2 7 -7 0 -4 17 -16 38 -27 20 -11 39 -23 42 -26 3 -3
21 -14 40 -24 19 -10 49 -29 66 -41 17 -13 34 -24 38 -24 3 0 24 -12 45 -27
21 -16 47 -34 57 -40 64 -43 139 -98 142 -105 2 -4 8 -8 13 -8 5 0 17 -6 26
-14 10 -8 78 -62 152 -121 184 -147 185 -148 545 -498 445 -434 606 -596 776
-784 58 -64 68 -76 140 -163 25 -30 47 -57 50 -60 3 -3 17 -21 30 -40 13 -19
27 -37 30 -40 3 -3 22 -27 41 -55 18 -27 37 -52 40 -55 14 -11 169 -254 169
-266 0 -6 7 -17 15 -24 8 -7 12 -16 9 -21 -3 -5 -1 -9 4 -9 9 0 70 -118 114
-219 29 -66 41 -95 43 -101 1 -3 7 -18 14 -35 7 -16 14 -37 16 -45 2 -8 4 -15
5 -15 1 0 3 -7 5 -15 2 -8 17 -51 33 -95 86 -234 150 -451 147 -495 -20 -285
-157 -576 -365 -780 -100 -98 -137 -125 -325 -237 -55 -32 -158 -95 -230 -139
-71 -43 -143 -86 -160 -94 -16 -8 -32 -17 -35 -20 -7 -7 -31 -20 -148 -82 -53
-29 -99 -56 -100 -60 -2 -4 -8 -6 -13 -2 -5 3 -9 0 -9 -5 0 -6 -3 -10 -7 -9
-11 3 -207 -94 -215 -106 -4 -6 -8 -8 -8 -4 0 4 -26 -6 -57 -21 -52 -26 -91
-44 -188 -86 -16 -8 -52 -24 -80 -36 -27 -12 -56 -22 -62 -22 -7 0 -13 -4 -13
-9 0 -4 -9 -8 -20 -8 -11 0 -20 -5 -20 -12 0 -6 -3 -9 -6 -6 -3 3 -33 -5 -67
-19 -69 -28 -206 -79 -222 -82 -5 -1 -46 -13 -90 -26 -71 -22 -173 -50 -215
-60 -91 -21 -242 -54 -270 -59 -19 -3 -46 -8 -60 -11 -14 -3 -41 -8 -60 -11
-19 -2 -46 -7 -60 -9 -64 -12 -234 -32 -344 -40 -186 -15 -274 -18 -496 -18
-264 -1 -420 4 -420 13 0 3 -35 6 -78 7 -42 1 -97 4 -122 8 -25 3 -81 10 -125
16 -134 17 -149 19 -171 24 -12 3 -39 7 -60 10 -21 3 -55 10 -74 15 -208 58
-260 73 -293 86 -21 8 -42 12 -47 9 -4 -3 -10 -2 -12 2 -1 5 -34 19 -73 31
-38 13 -79 27 -90 32 -11 4 -51 20 -90 35 -38 15 -81 32 -95 38 -14 6 -27 11
-30 12 -3 1 -18 7 -35 15 -16 7 -50 22 -75 32 -25 11 -76 35 -115 53 -38 19
-108 47 -155 64 -99 34 -262 96 -305 116 -16 7 -55 23 -85 35 -30 12 -59 25
-65 30 -5 4 -25 11 -42 15 -18 3 -33 11 -33 16 0 5 -7 9 -15 9 -8 0 -23 4 -33
10 -9 5 -47 23 -84 40 -255 113 -652 327 -781 421 -37 27 -70 49 -72 49 -3 0
-13 8 -23 18 -10 9 -35 31 -56 47 -115 89 -366 346 -366 376 0 5 -4 8 -8 5 -5
-3 -15 7 -23 22 -8 14 -21 34 -29 43 -46 53 -154 226 -214 344 -55 109 -96
197 -96 209 0 4 -9 26 -19 49 -11 24 -23 56 -27 72 -4 17 -11 36 -17 42 -5 7
-7 13 -4 13 3 0 -1 16 -9 35 -8 19 -14 38 -13 42 1 5 0 11 -1 16 -1 4 -3 10
-5 15 -1 4 -4 14 -7 22 -4 8 -12 44 -19 80 -7 36 -14 68 -15 73 -1 4 -2 8 -3
10 -1 1 -5 20 -7 42 -7 51 -12 80 -14 80 -1 0 -3 25 -5 56 -3 30 -7 73 -10 95
-23 164 -25 630 -3 677 6 11 5 17 -2 17 -6 0 -8 5 -5 10 4 6 8 32 10 58 2 26
5 47 5 47 1 0 4 11 5 25 4 27 12 63 15 68 3 2 3 2 15 47 11 43 54 155 71 187
8 14 14 33 14 42 0 9 3 16 8 16 4 0 15 19 25 43 39 90 174 288 262 386 117
128 231 226 365 315 47 30 90 60 97 66 7 5 16 10 21 10 5 0 15 6 21 14 6 7 44
35 84 62 39 26 74 51 77 54 15 17 336 214 433 265 20 11 37 23 37 28 0 4 4 6
9 2 5 -3 12 -1 16 5 6 10 61 36 79 38 5 0 12 4 15 9 10 13 151 84 151 76 0 -4
4 -3 8 3 12 18 488 222 557 239 6 1 21 6 35 12 14 6 43 16 65 23 22 7 49 16
60 21 11 4 61 19 110 34 50 15 110 33 135 40 58 17 168 46 199 52 14 2 28 6
31 8 4 2 21 7 38 10 18 3 60 12 94 20 35 8 77 16 93 19 17 3 40 8 51 10 12 2
37 7 55 10 19 3 54 9 80 14 25 5 78 10 119 11 41 1 76 4 77 5 5 5 337 -2 401
-9z"/>
<path d="M3579 6180 c-74 -19 -189 -69 -189 -81 0 -5 -6 -9 -13 -9 -7 0 -28
-12 -46 -27 -45 -37 -121 -113 -114 -113 3 0 -4 -8 -15 -19 -12 -10 -22 -21
-22 -24 0 -3 -13 -27 -30 -54 -56 -90 -92 -223 -93 -339 -1 -167 254 -402 538
-496 79 -26 117 -33 195 -33 56 0 77 6 150 43 47 23 97 52 112 64 14 13 35 30
45 38 36 31 107 121 135 172 78 141 101 336 55 458 -58 155 -151 270 -276 340
-14 8 -29 19 -32 23 -3 5 -10 9 -15 9 -5 0 -18 4 -29 9 -46 18 -60 22 -67 21
-5 -1 -8 2 -8 6 0 4 -8 8 -17 9 -10 0 -36 4 -58 8 -73 14 -142 12 -206 -5z"/>
<path d="M6475 5942 c-165 -30 -271 -85 -375 -193 -114 -118 -171 -253 -175
-414 -1 -70 2 -108 12 -127 7 -16 11 -28 8 -28 -5 0 40 -92 72 -144 33 -55 84
-111 152 -166 45 -36 181 -114 181 -104 0 4 6 2 13 -3 11 -9 36 -18 87 -30 67
-15 179 -22 201 -12 9 5 29 10 44 13 16 3 31 10 35 16 4 7 10 11 14 10 12 -4
66 22 66 31 0 5 9 9 20 9 10 0 23 6 27 13 4 7 28 27 53 44 77 53 183 191 217
283 9 25 21 48 26 51 5 3 8 9 7 13 -1 6 1 20 16 86 3 14 6 37 7 52 1 15 5 29
8 32 7 7 -9 114 -21 146 -1 3 -2 8 -1 13 0 4 -3 7 -9 7 -5 0 -10 7 -10 15 0
14 -18 53 -30 65 -3 3 -17 23 -32 45 -56 83 -149 164 -244 213 -39 20 -139 52
-179 59 -37 5 -170 9 -190 5z"/>
</g>
</svg>
